<svg width="29" height="30" viewBox="0 0 29 30" fill="none" xmlns="http://www.w3.org/2000/svg">
<g clip-path="url(#clip0_577_3163)">
<path d="M12.3334 5.74089C12.3334 6.44813 12.6143 7.12641 13.1144 7.6265C13.6145 8.1266 14.2928 8.40755 15 8.40755C15.7073 8.40755 16.3856 8.1266 16.8857 7.6265C17.3857 7.12641 17.6667 6.44813 17.6667 5.74089C17.6667 5.03364 17.3857 4.35536 16.8857 3.85527C16.3856 3.35517 15.7073 3.07422 15 3.07422C14.2928 3.07422 13.6145 3.35517 13.1144 3.85527C12.6143 4.35536 12.3334 5.03364 12.3334 5.74089Z" stroke="#646271" stroke-width="2" stroke-linecap="round" stroke-linejoin="round"/>
<path d="M7.00003 15.0739C7.00003 15.7811 7.28098 16.4594 7.78108 16.9595C8.28118 17.4596 8.95945 17.7406 9.6667 17.7406C10.3739 17.7406 11.0522 17.4596 11.5523 16.9595C12.0524 16.4594 12.3334 15.7811 12.3334 15.0739C12.3334 14.3666 12.0524 13.6884 11.5523 13.1883C11.0522 12.6882 10.3739 12.4072 9.6667 12.4072C8.95945 12.4072 8.28118 12.6882 7.78108 13.1883C7.28098 13.6884 7.00003 14.3666 7.00003 15.0739Z" stroke="#646271" stroke-width="2" stroke-linecap="round" stroke-linejoin="round"/>
<path d="M12.3334 24.4079C12.3334 25.1151 12.6143 25.7934 13.1144 26.2935C13.6145 26.7936 14.2928 27.0745 15 27.0745C15.7073 27.0745 16.3856 26.7936 16.8857 26.2935C17.3857 25.7934 17.6667 25.1151 17.6667 24.4079C17.6667 23.7006 17.3857 23.0224 16.8857 22.5223C16.3856 22.0222 15.7073 21.7412 15 21.7412C14.2928 21.7412 13.6145 22.0222 13.1144 22.5223C12.6143 23.0224 12.3334 23.7006 12.3334 24.4079Z" stroke="#646271" stroke-width="2" stroke-linecap="round" stroke-linejoin="round"/>
<path d="M23 24.4079C23 25.1151 23.281 25.7934 23.7811 26.2935C24.2812 26.7936 24.9595 27.0745 25.6667 27.0745C26.3739 27.0745 27.0522 26.7936 27.5523 26.2935C28.0524 25.7934 28.3334 25.1151 28.3334 24.4079C28.3334 23.7006 28.0524 23.0224 27.5523 22.5223C27.0522 22.0222 26.3739 21.7412 25.6667 21.7412C24.9595 21.7412 24.2812 22.0222 23.7811 22.5223C23.281 23.0224 23 23.7006 23 24.4079Z" stroke="#646271" stroke-width="2" stroke-linecap="round" stroke-linejoin="round"/>
<path d="M1.66669 24.4079C1.66669 25.1151 1.94765 25.7934 2.44774 26.2935C2.94784 26.7936 3.62612 27.0745 4.33336 27.0745C5.04061 27.0745 5.71888 26.7936 6.21898 26.2935C6.71908 25.7934 7.00003 25.1151 7.00003 24.4079C7.00003 23.7006 6.71908 23.0224 6.21898 22.5223C5.71888 22.0222 5.04061 21.7412 4.33336 21.7412C3.62612 21.7412 2.94784 22.0222 2.44774 22.5223C1.94765 23.0224 1.66669 23.7006 1.66669 24.4079Z" stroke="#646271" stroke-width="2" stroke-linecap="round" stroke-linejoin="round"/>
<path d="M17.6667 15.0739C17.6667 15.7811 17.9476 16.4594 18.4477 16.9595C18.9478 17.4596 19.6261 17.7406 20.3334 17.7406C21.0406 17.7406 21.7189 17.4596 22.219 16.9595C22.7191 16.4594 23 15.7811 23 15.0739C23 14.3666 22.7191 13.6884 22.219 13.1883C21.7189 12.6882 21.0406 12.4072 20.3334 12.4072C19.6261 12.4072 18.9478 12.6882 18.4477 13.1883C17.9476 13.6884 17.6667 14.3666 17.6667 15.0739Z" stroke="#646271" stroke-width="2" stroke-linecap="round" stroke-linejoin="round"/>
<path d="M5.66669 21.7412L8.33336 17.7412" stroke="#646271" stroke-width="2" stroke-linecap="round" stroke-linejoin="round"/>
<path d="M11 12.4072L13.6667 8.40723" stroke="#646271" stroke-width="2" stroke-linecap="round" stroke-linejoin="round"/>
<path d="M16.3334 8.40723L19 12.4072" stroke="#646271" stroke-width="2" stroke-linecap="round" stroke-linejoin="round"/>
<path d="M21.6667 17.7412L24.3334 21.7412" stroke="#646271" stroke-width="2" stroke-linecap="round" stroke-linejoin="round"/>
<path d="M19 17.7412L16.3334 21.7412" stroke="#646271" stroke-width="2" stroke-linecap="round" stroke-linejoin="round"/>
<path d="M11 17.7412L13.6667 21.7412" stroke="#646271" stroke-width="2" stroke-linecap="round" stroke-linejoin="round"/>
</g>
<defs>
<clipPath id="clip0_577_3163">
<rect width="29" height="29" fill="white" transform="translate(3.05176e-05 0.0742188)"/>
</clipPath>
</defs>
</svg>
