<svg width="44" height="45" viewBox="0 0 44 45" fill="none" xmlns="http://www.w3.org/2000/svg">
<g clip-path="url(#clip0_558_6479)">
<path d="M11 16.5732H22" stroke="#602DE1" stroke-width="2.75" stroke-linecap="round" stroke-linejoin="round"/>
<path d="M7.33301 9.24023H14.6663" stroke="#602DE1" stroke-width="2.75" stroke-linecap="round" stroke-linejoin="round"/>
<path d="M11 9.24023V29.4069C11 29.8931 11.1932 30.3594 11.537 30.7033C11.8808 31.0471 12.3471 31.2402 12.8333 31.2402H22" stroke="#602DE1" stroke-width="2.75" stroke-linecap="round" stroke-linejoin="round"/>
<path d="M22 14.7396C22 14.2534 22.1932 13.787 22.537 13.4432C22.8808 13.0994 23.3471 12.9062 23.8333 12.9062H34.8333C35.3196 12.9062 35.7859 13.0994 36.1297 13.4432C36.4735 13.787 36.6667 14.2534 36.6667 14.7396V18.4063C36.6667 18.8925 36.4735 19.3588 36.1297 19.7026C35.7859 20.0464 35.3196 20.2396 34.8333 20.2396H23.8333C23.3471 20.2396 22.8808 20.0464 22.537 19.7026C22.1932 19.3588 22 18.8925 22 18.4063V14.7396Z" stroke="#602DE1" stroke-width="2.75" stroke-linecap="round" stroke-linejoin="round"/>
<path d="M22 29.4066C22 28.9203 22.1932 28.454 22.537 28.1102C22.8808 27.7664 23.3471 27.5732 23.8333 27.5732H34.8333C35.3196 27.5732 35.7859 27.7664 36.1297 28.1102C36.4735 28.454 36.6667 28.9203 36.6667 29.4066V33.0732C36.6667 33.5595 36.4735 34.0258 36.1297 34.3696C35.7859 34.7134 35.3196 34.9066 34.8333 34.9066H23.8333C23.3471 34.9066 22.8808 34.7134 22.537 34.3696C22.1932 34.0258 22 33.5595 22 33.0732V29.4066Z" stroke="#602DE1" stroke-width="2.75" stroke-linecap="round" stroke-linejoin="round"/>
</g>
<defs>
<clipPath id="clip0_558_6479">
<rect width="44" height="44" fill="white" transform="translate(0 0.0732422)"/>
</clipPath>
</defs>
</svg>
